<mxfile host="app.diagrams.net" modified="2023-05-08T18:53:03.900Z" agent="Mozilla/5.0 (Windows NT 10.0; Win64; x64) AppleWebKit/537.36 (KHTML, like Gecko) Chrome/111.0.0.0 Safari/537.36" version="21.2.9" etag="wDdXUNpJqLNVTXYLAUJ8" type="github">
  <diagram name="第 1 页" id="IDQb3ljKQdFMNSRKVl32">
    <mxGraphModel>
      <root>
        <mxCell id="0" />
        <mxCell id="1" parent="0" />
      </root>
    </mxGraphModel>
  </diagram>
</mxfile>
